REM DIRINDEX 1\2\6,1\2\7,1\2\8,1\2\9,1\3\10,1\3\11,1\4\12,1\4\13,1\4\14,1\5\15,1\5\16,1\5\17
REM DIRNAME cjc020,folder01,folder02,folder03,folder04,folder05,folder06,folder07,folder08,folder09,folder10,folder11,folder12,folder13,folder14,folder15,folder16
TITLE ""
FILE "1900_3_051 sec09_0833_0850.mp3" MP3
  TRACK 01 AUDIO
    TITLE "0:"
    INDEX 01 00:00:00
  TRACK 02 AUDIO
    TITLE "17:cjc020_7641"
    INDEX 01 00:00:15
  TRACK 03 AUDIO
    TITLE "0:"
    INDEX 01 00:01:40
  TRACK 04 AUDIO
    TITLE "16:cjc020_7642"
    INDEX 01 00:01:42
  TRACK 05 AUDIO
    TITLE "0:"
    INDEX 01 00:02:43
  TRACK 06 AUDIO
    TITLE "17:cjc020_7643"
    INDEX 01 00:03:27
  TRACK 07 AUDIO
    TITLE "0:"
    INDEX 01 00:04:38
  TRACK 08 AUDIO
    TITLE "16:cjc020_7644"
    INDEX 01 00:04:42
  TRACK 09 AUDIO
    TITLE "0:"
    INDEX 01 00:05:48
  TRACK 10 AUDIO
    TITLE "17:cjc020_7645"
    INDEX 01 00:06:30
  TRACK 11 AUDIO
    TITLE "0:"
    INDEX 01 00:07:62
  TRACK 12 AUDIO
    TITLE "16:cjc020_7646"
    INDEX 01 00:07:68
  TRACK 13 AUDIO
    TITLE "0:"
    INDEX 01 00:09:12
  TRACK 14 AUDIO
    TITLE "17:cjc020_7647"
    INDEX 01 00:09:71
  TRACK 15 AUDIO
    TITLE "0:"
    INDEX 01 00:11:03
  TRACK 16 AUDIO
    TITLE "16:cjc020_7648"
    INDEX 01 00:11:07
  TRACK 17 AUDIO
    TITLE "0:"
    INDEX 01 00:12:20
  TRACK 18 AUDIO
    TITLE "17:cjc020_7649"
    INDEX 01 00:13:02
  TRACK 19 AUDIO
    TITLE "0:"
    INDEX 01 00:14:35
  TRACK 20 AUDIO
    TITLE "16:cjc020_7650"
    INDEX 01 00:14:41
  TRACK 21 AUDIO
    TITLE "0:"
    INDEX 01 00:15:52
  TRACK 22 AUDIO
    TITLE "17:cjc020_7651"
    INDEX 01 00:16:32
  TRACK 23 AUDIO
    TITLE "0:"
    INDEX 01 00:17:35
  TRACK 24 AUDIO
    TITLE "16:cjc020_7652"
    INDEX 01 00:17:37
  TRACK 25 AUDIO
    TITLE "0:"
    INDEX 01 00:18:33
  TRACK 26 AUDIO
    TITLE "17:cjc020_7653"
    INDEX 01 00:19:15
  TRACK 27 AUDIO
    TITLE "0:"
    INDEX 01 00:19:73
  TRACK 28 AUDIO
    TITLE "16:cjc020_7654"
    INDEX 01 00:20:02
  TRACK 29 AUDIO
    TITLE "0:"
    INDEX 01 00:20:71
  TRACK 30 AUDIO
    TITLE "17:cjc020_7655"
    INDEX 01 00:21:58
  TRACK 31 AUDIO
    TITLE "0:"
    INDEX 01 00:23:03
  TRACK 32 AUDIO
    TITLE "16:cjc020_7656"
    INDEX 01 00:23:06
  TRACK 33 AUDIO
    TITLE "0:"
    INDEX 01 00:24:18
  TRACK 34 AUDIO
    TITLE "17:cjc020_7657"
    INDEX 01 00:25:01
  TRACK 35 AUDIO
    TITLE "0:"
    INDEX 01 00:26:03
  TRACK 36 AUDIO
    TITLE "16:cjc020_7658"
    INDEX 01 00:26:07
  TRACK 37 AUDIO
    TITLE "0:"
    INDEX 01 00:27:04
  TRACK 38 AUDIO
    TITLE "17:cjc020_7659"
    INDEX 01 00:27:61
  TRACK 39 AUDIO
    TITLE "0:"
    INDEX 01 00:29:68
  TRACK 40 AUDIO
    TITLE "16:cjc020_7660"
    INDEX 01 00:29:70
  TRACK 41 AUDIO
    TITLE "0:"
    INDEX 01 00:31:12
  TRACK 42 AUDIO
    TITLE "17:cjc020_7661"
    INDEX 01 00:31:71
  TRACK 43 AUDIO
    TITLE "0:"
    INDEX 01 00:33:01
  TRACK 44 AUDIO
    TITLE "16:cjc020_7662"
    INDEX 01 00:33:03
  TRACK 45 AUDIO
    TITLE "0:"
    INDEX 01 00:34:04
  TRACK 46 AUDIO
    TITLE "17:cjc020_7663"
    INDEX 01 00:34:63
  TRACK 47 AUDIO
    TITLE "0:"
    INDEX 01 00:37:34
  TRACK 48 AUDIO
    TITLE "16:cjc020_7664"
    INDEX 01 00:37:40
  TRACK 49 AUDIO
    TITLE "0:"
    INDEX 01 00:38:59
  TRACK 50 AUDIO
    TITLE "17:cjc020_7665"
    INDEX 01 00:39:43
  TRACK 51 AUDIO
    TITLE "0:"
    INDEX 01 00:41:51
  TRACK 52 AUDIO
    TITLE "16:cjc020_7666"
    INDEX 01 00:41:55
  TRACK 53 AUDIO
    TITLE "0:"
    INDEX 01 00:42:63
  TRACK 54 AUDIO
    TITLE "17:cjc020_7667"
    INDEX 01 00:43:46
  TRACK 55 AUDIO
    TITLE "0:"
    INDEX 01 00:45:61
  TRACK 56 AUDIO
    TITLE "16:cjc020_7668"
    INDEX 01 00:45:67
  TRACK 57 AUDIO
    TITLE "0:"
    INDEX 01 00:46:74
  TRACK 58 AUDIO
    TITLE "17:cjc020_7669"
    INDEX 01 00:47:58
  TRACK 59 AUDIO
    TITLE "0:"
    INDEX 01 00:48:59
  TRACK 60 AUDIO
    TITLE "16:cjc020_7670"
    INDEX 01 00:48:61
  TRACK 61 AUDIO
    TITLE "0:"
    INDEX 01 00:50:11
  TRACK 62 AUDIO
    TITLE "17:cjc020_7671"
    INDEX 01 00:50:66
  TRACK 63 AUDIO
    TITLE "0:"
    INDEX 01 00:52:26
  TRACK 64 AUDIO
    TITLE "16:cjc020_7672"
    INDEX 01 00:52:28
  TRACK 65 AUDIO
    TITLE "0:"
    INDEX 01 00:53:45
  TRACK 66 AUDIO
    TITLE "17:cjc020_7673"
    INDEX 01 00:54:27
  TRACK 67 AUDIO
    TITLE "0:"
    INDEX 01 00:56:29
  TRACK 68 AUDIO
    TITLE "16:cjc020_7674"
    INDEX 01 00:56:35
  TRACK 69 AUDIO
    TITLE "0:"
    INDEX 01 00:57:35
  TRACK 70 AUDIO
    TITLE "17:cjc020_7675"
    INDEX 01 00:58:20
  TRACK 71 AUDIO
    TITLE "0:"
    INDEX 01 00:59:26
  TRACK 72 AUDIO
    TITLE "16:cjc020_7676"
    INDEX 01 00:59:28
  TRACK 73 AUDIO
    TITLE "0:"
    INDEX 01 01:00:49
